<?xml version="1.0" standalone="no"?>
<!DOCTYPE svg PUBLIC "-//W3C//DTD SVG 20010904//EN"
 "http://www.w3.org/TR/2001/REC-SVG-20010904/DTD/svg10.dtd">
<svg version="1.0" xmlns="http://www.w3.org/2000/svg"
 width="328.000000pt" height="328.000000pt" viewBox="0 0 328.000000 328.000000"
 preserveAspectRatio="xMidYMid meet">
<metadata>
Created by potrace 1.14, written by Peter Selinger 2001-2017
</metadata>
<g transform="translate(0.000000,328.000000) scale(0.100000,-0.100000)"
fill="#000000" stroke="none">
<path d="M1380 2540 c0 -5 -3 -10 -7 -9 -16 2 -53 -14 -53 -22 0 -5 -3 -8 -7
-7 -13 4 -167 -76 -178 -92 -5 -8 -10 -46 -10 -85 l0 -70 -227 0 c-124 0 -230
-3 -234 -7 -9 -10 -13 -113 -5 -127 4 -6 26 -12 49 -13 l42 -1 1 -41 c1 -23 2
-68 4 -101 11 -196 17 -331 19 -412 1 -51 5 -95 9 -99 3 -4 2 -15 -4 -25 -5
-11 -6 -19 -2 -19 5 0 9 -30 10 -67 2 -76 11 -301 17 -407 2 -37 9 -73 15 -79
11 -11 477 -15 487 -4 3 3 1 14 -4 24 -5 10 -7 86 -5 168 5 192 5 182 0 238
-3 26 0 47 5 47 5 0 7 4 4 8 -3 5 3 22 13 39 12 18 16 35 11 44 -5 7 -6 17 -4
21 3 4 0 8 -5 8 -6 0 -10 18 -9 40 1 21 -3 45 -8 52 -19 25 4 118 29 118 6 0
8 3 4 6 -8 9 75 94 92 94 8 0 11 3 8 6 -7 7 36 44 51 44 14 0 23 37 26 112 1
37 5 70 8 74 4 3 3 17 -2 30 -5 13 -6 26 -1 28 5 3 7 16 6 29 -2 19 2 23 29
25 58 4 64 10 62 52 0 22 2 40 7 40 7 0 -13 41 -25 50 -4 3 -101 5 -217 5
-239 -1 -220 -8 -212 89 3 43 6 50 32 59 16 6 29 15 29 20 0 4 5 5 10 2 6 -3
10 -1 10 4 0 6 3 10 8 10 12 -3 72 25 72 33 0 4 8 8 19 8 10 0 24 7 31 15 7 8
16 13 20 10 9 -6 20 31 12 39 -9 10 -32 7 -32 -4z m188 -358 c-3 -21 -9 -25
-40 -27 -21 0 -38 4 -38 9 0 6 -4 5 -9 -2 -11 -17 -21 -17 -32 0 -6 8 -12 9
-16 3 -9 -12 -223 -14 -223 -2 0 5 -6 5 -12 0 -17 -10 -138 -11 -159 -2 -8 4
-21 4 -29 -1 -9 -5 -19 -5 -26 1 -7 6 -15 6 -18 1 -3 -5 -18 -7 -33 -5 -33 5
-37 5 -85 0 -23 -2 -38 0 -38 7 0 7 -3 7 -8 1 -9 -12 -72 -14 -72 -2 0 4 -4 6
-9 2 -12 -7 -24 12 -18 29 4 10 93 13 437 13 l431 -1 -3 -24z m-97 -104 c2
-30 -2 -124 -6 -138 -4 -13 -49 -15 -324 -15 -176 0 -323 4 -327 7 -4 4 -8 27
-9 50 -2 24 -4 48 -5 53 -1 6 -2 20 -1 33 l1 22 335 0 c261 0 335 -3 336 -12z"/>
<path d="M1839 1906 c-2 -2 -17 -7 -34 -9 -88 -16 -131 -31 -217 -74 -37 -19
-68 -39 -68 -45 0 -5 -4 -7 -9 -4 -10 6 -157 -132 -153 -145 1 -5 -2 -9 -8 -9
-14 0 -12 -57 3 -67 6 -4 75 -8 152 -8 77 0 146 -4 153 -8 6 -5 12 -4 12 1 0
5 22 8 49 8 28 0 47 -5 44 -10 -4 -5 0 -6 8 0 8 5 187 9 397 9 357 0 385 2
397 18 18 25 9 51 -36 98 -22 23 -39 45 -39 50 0 5 -4 9 -8 9 -5 0 -20 9 -33
20 -62 51 -115 83 -179 107 -108 41 -104 40 -160 50 -40 7 -266 14 -271 9z"/>
<path d="M2450 1524 c0 -6 -10 -11 -22 -10 -24 2 -119 -31 -128 -43 -3 -4 -21
-14 -40 -23 -44 -21 -105 -17 -149 8 -69 39 -96 52 -103 48 -4 -2 -9 -1 -12 4
-15 24 -165 -16 -187 -50 -3 -5 -12 -10 -20 -11 -8 -2 -18 -5 -24 -8 -16 -9
-95 -7 -101 2 -3 5 -14 9 -25 9 -10 0 -19 3 -19 8 0 7 -58 36 -100 48 -33 10
-111 7 -144 -6 -23 -8 -25 -13 -16 -30 8 -14 17 -19 33 -15 71 18 159 4 178
-27 5 -7 9 -10 9 -6 0 3 21 -4 46 -17 25 -13 55 -22 65 -20 11 2 19 -2 19 -8
0 -7 4 -6 10 3 9 13 10 13 10 0 0 -13 1 -13 10 0 5 8 10 12 10 8 0 -11 62 13
95 38 72 53 147 51 230 -6 22 -15 52 -30 65 -32 14 -1 28 -7 32 -13 5 -6 8 -5
8 3 0 10 5 10 21 1 13 -7 19 -7 15 -1 -4 6 2 11 11 11 36 1 53 4 53 11 0 3 26
19 57 35 64 32 108 37 169 20 36 -11 42 -10 52 5 12 20 -2 40 -29 40 -10 0
-20 4 -24 10 -3 5 -13 6 -21 3 -9 -3 -20 0 -25 8 -5 8 -9 9 -9 3z"/>
<path d="M1530 1365 c0 -6 -34 -10 -80 -10 -66 -1 -83 -4 -98 -20 -21 -23 -21
-88 0 -107 19 -18 29 -20 152 -21 156 -3 148 -22 -9 -23 -167 -1 -161 5 -160
-177 1 -85 6 -142 13 -149 7 -7 185 -11 599 -12 l588 -1 21 22 c19 19 21 31
20 122 -1 62 1 98 7 94 6 -4 7 -1 1 8 -4 8 -8 24 -9 35 0 12 -8 30 -17 41 -16
17 -38 18 -362 18 -230 0 -345 3 -343 10 2 6 119 11 328 12 178 1 332 2 342 2
30 2 55 36 52 72 -4 47 -14 69 -34 70 -9 1 -27 2 -41 3 -14 1 -30 5 -37 9 -6
4 -14 3 -17 -1 -5 -8 -51 -9 -81 -2 -5 1 -12 1 -15 0 -18 -8 -296 -4 -302 5
-5 7 -8 7 -8 0 0 -9 -90 -12 -125 -5 -5 1 -12 1 -15 0 -15 -7 -82 -5 -86 2 -3
5 -11 5 -17 1 -19 -12 -251 -10 -259 2 -5 6 -8 6 -8 0z"/>
</g>
</svg>
